<svg xmlns="http://www.w3.org/2000/svg" viewBox="0 0 100 100"><defs><style>.cls-1{fill:#fff;}</style></defs><g id="Layer_2" data-name="Layer 2"><g id="katman_1" data-name="katman 1"><path class="cls-1" d="M100,50A50,50,0,1,1,50,0,50,50,0,0,1,100,50Z"/><path d="M24.67,51.68l.21-.34L37.89,31a.45.45,0,0,1,.78.06c2.17,4.87,4,10.93,3.17,14.7a22.62,22.62,0,0,1-2.56,5.59c-.15.28-.31.56-.49.83a.44.44,0,0,1-.37.19H25.05A.44.44,0,0,1,24.67,51.68Z"/><path d="M82.64,55.46v3.22a.45.45,0,0,1-.27.42c-1,.43-4.46,2-5.89,4C72.82,68.2,70,75.48,63.78,75.48H37.72A16.74,16.74,0,0,1,21,58.7v-.3a.45.45,0,0,1,.45-.44H36a.5.5,0,0,1,.48.55A4.89,4.89,0,0,0,37,61.3a5.1,5.1,0,0,0,4.58,2.84h7.19V58.53H41.63a.46.46,0,0,1-.37-.72l.26-.38c.67-1,1.63-2.44,2.59-4.13a33.2,33.2,0,0,0,1.79-3.58c.1-.22.18-.45.27-.67.14-.39.28-.76.38-1.12s.19-.63.27-.93a14.6,14.6,0,0,0,.34-3.28c0-.45,0-.92-.06-1.36s-.08-1-.14-1.47-.12-.86-.2-1.3c-.11-.65-.25-1.3-.41-2l-.06-.25c-.12-.45-.23-.87-.37-1.32-.41-1.4-.87-2.77-1.37-4-.18-.51-.38-1-.59-1.48-.3-.74-.61-1.41-.89-2-.15-.29-.27-.55-.39-.82s-.28-.6-.43-.89-.22-.43-.3-.63l-.88-1.62a.29.29,0,0,1,.32-.42l5.5,1.49h0l.72.21.8.22.29.08V22.86A2.84,2.84,0,0,1,51.57,20a2.75,2.75,0,0,1,2,.84,2.87,2.87,0,0,1,.83,2v4.85l.59.16.13.07.61.46c.21.16.43.36.69.57.53.43,1.17,1,1.86,1.61.18.16.36.32.53.49.89.83,1.89,1.8,2.85,2.88.27.31.53.61.8.94s.55.65.79,1,.67.88,1,1.35c.14.22.31.45.44.67a20.93,20.93,0,0,1,1.07,1.81c.14.28.28.59.4.89A12.38,12.38,0,0,1,67,43.07a2.71,2.71,0,0,1,.12.55v0a4.62,4.62,0,0,1,.1.77A8.57,8.57,0,0,1,67.05,47c-.08.36-.18.7-.3,1.07s-.25.71-.41,1.06a14.38,14.38,0,0,1-1.1,2.09c-.14.25-.31.51-.47.76s-.37.51-.53.75-.47.63-.72.92a9.76,9.76,0,0,1-.69.87c-.34.41-.67.79-1,1.16a8.67,8.67,0,0,1-.65.71c-.22.25-.45.47-.65.67s-.63.61-.87.84l-.57.51a.42.42,0,0,1-.3.12H54.39v5.61H59.9a5.12,5.12,0,0,0,3.35-1.24,40.68,40.68,0,0,0,3.4-3.34.39.39,0,0,1,.21-.13L82.07,55A.45.45,0,0,1,82.64,55.46Z"/></g></g></svg>