<svg id="Group_3" data-name="Group 3" xmlns="http://www.w3.org/2000/svg" xmlns:xlink="http://www.w3.org/1999/xlink" width="163.661" height="80.357" viewBox="0 0 163.661 80.357">
  <defs>
    <clipPath id="clip-path">
      <rect id="Rectangle_1" data-name="Rectangle 1" width="163.661" height="80.357" fill="none"/>
    </clipPath>
  </defs>
  <path id="Path_1" data-name="Path 1" d="M0,0V8.631H7.917V52.564H19.6V8.631H27.45V0Z" transform="translate(0 0)" fill="#fff"/>
  <path id="Path_2" data-name="Path 2" d="M270.65,0V52.564H294.4V44.712H282.266v-15.7h9.15V20.961h-9.15V7.918h12.005V0Z" transform="translate(-238.593 0)" fill="#fff"/>
  <g id="Group_2" data-name="Group 2">
    <g id="Group_1" data-name="Group 1" clip-path="url(#clip-path)">
      <path id="Path_3" data-name="Path 3" d="M533.07,52.564q-6.814,0-10.61-1.752a10.208,10.208,0,0,1-5.354-5.484,25.283,25.283,0,0,1-1.557-9.637V16.613a24.578,24.578,0,0,1,1.557-9.507,10.1,10.1,0,0,1,5.386-5.386Q526.322,0,533.2,0h13.3V52.564Zm1.817-44.452h-1.752a8.158,8.158,0,0,0-3.764.649,3.118,3.118,0,0,0-1.525,2.077,16.081,16.081,0,0,0-.357,3.764V37.509a21.658,21.658,0,0,0,.292,3.894,3.425,3.425,0,0,0,1.46,2.336,7.136,7.136,0,0,0,3.829.779h1.817Z" transform="translate(-454.484)" fill="#fff"/>
      <path id="Path_4" data-name="Path 4" d="M836.607,52.564V0h13.3q6.878,0,10.708,1.72A10.1,10.1,0,0,1,866,7.106a24.577,24.577,0,0,1,1.557,9.507V35.692A25.284,25.284,0,0,1,866,45.328a10.209,10.209,0,0,1-5.354,5.484q-3.8,1.752-10.61,1.752Zm11.616-8.047h1.817a7.136,7.136,0,0,0,3.829-.779,3.425,3.425,0,0,0,1.46-2.336,21.658,21.658,0,0,0,.292-3.894V14.6a16.076,16.076,0,0,0-.357-3.764,3.118,3.118,0,0,0-1.525-2.077,8.158,8.158,0,0,0-3.764-.649h-1.752Z" transform="translate(-737.516)" fill="#fff"/>
      <path id="Path_5" data-name="Path 5" d="M1130.409,52.565V31.085L1120.415,0h10.967l5,16.613L1140.856,0h10.513l-9.8,31.084v21.48Z" transform="translate(-987.708 -0.001)" fill="#fff"/>
      <text id="HAPE_CLUB" data-name="HAPE CLUB" transform="translate(37.614 75.003)" fill="#fff" font-size="15" font-family="Oswald-Regular, Oswald"><tspan x="0" y="0" letter-spacing="0.14em">HAPE</tspan><tspan y="0" xml:space="preserve" letter-spacing="0.139em"> C</tspan><tspan y="0" letter-spacing="0.14em">LU</tspan><tspan y="0">B</tspan></text>
    </g>
  </g>
</svg>
